<?xml version="1.0" encoding="UTF-8"?>
<svg width="800" height="500" xmlns="http://www.w3.org/2000/svg">
  <!-- Background -->
  <rect width="800" height="500" fill="#1e1e1e" rx="15" ry="15"/>
  
  <!-- Title -->
  <text x="400" y="40" font-family="Arial" font-size="24" fill="#ffffff" text-anchor="middle">Staples Brain Orchestrator Architecture</text>
  
  <!-- User Input -->
  <rect x="40" y="100" width="140" height="60" rx="10" ry="10" fill="#2a6099" stroke="#ffffff" stroke-width="2"/>
  <text x="110" y="138" font-family="Arial" font-size="16" fill="#ffffff" text-anchor="middle">User Input</text>
  
  <!-- GraphBrainService Container -->
  <rect x="100" y="190" width="600" height="280" rx="10" ry="10" fill="#333333" stroke="#555555" stroke-width="2" stroke-dasharray="5,5"/>
  <text x="400" y="215" font-family="Arial" font-size="18" fill="#ffffff" text-anchor="middle">GraphBrainService</text>
  
  <!-- Agent Router -->
  <rect x="140" y="240" width="180" height="80" rx="10" ry="10" fill="#6b4c9a" stroke="#ffffff" stroke-width="2"/>
  <text x="230" y="275" font-family="Arial" font-size="16" fill="#ffffff" text-anchor="middle">Agent Router</text>
  <text x="230" y="295" font-family="Arial" font-size="12" fill="#cccccc" text-anchor="middle">Intent Detection &amp; Routing</text>
  
  <!-- StateGraph -->
  <rect x="480" y="240" width="180" height="80" rx="10" ry="10" fill="#2a7d4f" stroke="#ffffff" stroke-width="2"/>
  <text x="570" y="275" font-family="Arial" font-size="16" fill="#ffffff" text-anchor="middle">StateGraph</text>
  <text x="570" y="295" font-family="Arial" font-size="12" fill="#cccccc" text-anchor="middle">Workflow Execution</text>
  
  <!-- Agent Factory -->
  <rect x="140" y="360" width="180" height="80" rx="10" ry="10" fill="#a94442" stroke="#ffffff" stroke-width="2"/>
  <text x="230" y="395" font-family="Arial" font-size="16" fill="#ffffff" text-anchor="middle">Agent Factory</text>
  <text x="230" y="415" font-family="Arial" font-size="12" fill="#cccccc" text-anchor="middle">Agent Creation &amp; Management</text>
  
  <!-- Specialized Agents -->
  <rect x="480" y="360" width="180" height="80" rx="10" ry="10" fill="#aa8239" stroke="#ffffff" stroke-width="2"/>
  <text x="570" y="395" font-family="Arial" font-size="16" fill="#ffffff" text-anchor="middle">Specialized Agents</text>
  <text x="570" y="415" font-family="Arial" font-size="12" fill="#cccccc" text-anchor="middle">Task-Specific Handling</text>
  
  <!-- Database -->
  <rect x="390" y="470" width="140" height="60" rx="10" ry="10" fill="#3a6e8e" stroke="#ffffff" stroke-width="2"/>
  <text x="460" y="505" font-family="Arial" font-size="16" fill="#ffffff" text-anchor="middle">Database</text>
  
  <!-- Arrows -->
  <!-- User to Router -->
  <line x1="110" y1="160" x2="180" y2="240" stroke="#ffffff" stroke-width="2" marker-end="url(#arrowhead)"/>
  
  <!-- Router to StateGraph -->
  <line x1="320" y1="280" x2="480" y2="280" stroke="#ffffff" stroke-width="2" marker-end="url(#arrowhead)"/>
  
  <!-- StateGraph to Agents -->
  <line x1="570" y1="320" x2="570" y2="360" stroke="#ffffff" stroke-width="2" marker-end="url(#arrowhead)"/>
  
  <!-- Factory to Router -->
  <line x1="230" y1="360" x2="230" y2="320" stroke="#ffffff" stroke-width="2" marker-end="url(#arrowhead)"/>
  
  <!-- Factory to Agent -->
  <line x1="320" y1="400" x2="480" y2="400" stroke="#ffffff" stroke-width="2" marker-end="url(#arrowhead)"/>
  
  <!-- Database to Factory -->
  <line x1="390" y1="470" x2="270" y2="440" stroke="#ffffff" stroke-width="2" marker-end="url(#arrowhead)"/>
  
  <!-- Arrowhead marker -->
  <defs>
    <marker id="arrowhead" markerWidth="10" markerHeight="7" refX="9" refY="3.5" orient="auto">
      <polygon points="0 0, 10 3.5, 0 7" fill="#ffffff"/>
    </marker>
  </defs>
  
  <!-- Legend -->
  <rect x="650" y="100" width="120" height="80" rx="5" ry="5" fill="#333333" stroke="#555555" stroke-width="1"/>
  <text x="710" y="120" font-family="Arial" font-size="14" fill="#ffffff" text-anchor="middle">Legend</text>
  
  <rect x="660" y="130" width="15" height="15" fill="#6b4c9a"/>
  <text x="685" y="143" font-family="Arial" font-size="12" fill="#ffffff" text-anchor="start">Routing</text>
  
  <rect x="660" y="150" width="15" height="15" fill="#2a7d4f"/>
  <text x="685" y="163" font-family="Arial" font-size="12" fill="#ffffff" text-anchor="start">Workflow</text>
  
  <rect x="660" y="170" width="15" height="15" fill="#a94442"/>
  <text x="685" y="183" font-family="Arial" font-size="12" fill="#ffffff" text-anchor="start">Factory</text>
</svg>