<?xml version="1.0" encoding="UTF-8" standalone="no"?>
<svg width="800" height="600" xmlns="http://www.w3.org/2000/svg">
  <!-- Title -->
  <text x="400" y="40" font-family="Arial" font-size="24" font-weight="bold" text-anchor="middle">Staples Brain - High Level Architecture</text>
  
  <!-- External Systems -->
  <rect x="50" y="100" width="150" height="80" rx="10" ry="10" fill="#f8f9fa" stroke="#212529" stroke-width="2"/>
  <text x="125" y="145" font-family="Arial" font-size="16" text-anchor="middle">Kore.ai</text>
  
  <rect x="50" y="200" width="150" height="80" rx="10" ry="10" fill="#f8f9fa" stroke="#212529" stroke-width="2"/>
  <text x="125" y="245" font-family="Arial" font-size="16" text-anchor="middle">Salesforce</text>
  
  <rect x="50" y="300" width="150" height="80" rx="10" ry="10" fill="#f8f9fa" stroke="#212529" stroke-width="2"/>
  <text x="125" y="345" font-family="Arial" font-size="16" text-anchor="middle">External APIs</text>
  
  <!-- Core System -->
  <rect x="300" y="150" width="250" height="300" rx="10" ry="10" fill="#e9ecef" stroke="#495057" stroke-width="2"/>
  <text x="425" y="180" font-family="Arial" font-size="18" font-weight="bold" text-anchor="middle">Staples Brain Core</text>
  
  <!-- Components inside Core -->
  <rect x="325" y="200" width="200" height="60" rx="5" ry="5" fill="#d0ebff" stroke="#1864ab" stroke-width="2"/>
  <text x="425" y="235" font-family="Arial" font-size="14" text-anchor="middle">Intent Handler</text>
  
  <rect x="325" y="280" width="200" height="60" rx="5" ry="5" fill="#d0ebff" stroke="#1864ab" stroke-width="2"/>
  <text x="425" y="315" font-family="Arial" font-size="14" text-anchor="middle">Orchestrator</text>
  
  <rect x="325" y="360" width="200" height="60" rx="5" ry="5" fill="#d0ebff" stroke="#1864ab" stroke-width="2"/>
  <text x="425" y="395" font-family="Arial" font-size="14" text-anchor="middle">Memory System</text>
  
  <!-- Agent System -->
  <rect x="650" y="150" width="100" height="300" rx="10" ry="10" fill="#e9ecef" stroke="#495057" stroke-width="2"/>
  <text x="700" y="180" font-family="Arial" font-size="16" font-weight="bold" text-anchor="middle">Agents</text>
  
  <!-- Individual Agents -->
  <rect x="670" y="200" width="60" height="40" rx="5" ry="5" fill="#fff3bf" stroke="#e67700" stroke-width="2"/>
  <text x="700" y="225" font-family="Arial" font-size="10" text-anchor="middle">Package</text>
  
  <rect x="670" y="250" width="60" height="40" rx="5" ry="5" fill="#fff3bf" stroke="#e67700" stroke-width="2"/>
  <text x="700" y="275" font-family="Arial" font-size="10" text-anchor="middle">Password</text>
  
  <rect x="670" y="300" width="60" height="40" rx="5" ry="5" fill="#fff3bf" stroke="#e67700" stroke-width="2"/>
  <text x="700" y="325" font-family="Arial" font-size="10" text-anchor="middle">Store</text>
  
  <rect x="670" y="350" width="60" height="40" rx="5" ry="5" fill="#fff3bf" stroke="#e67700" stroke-width="2"/>
  <text x="700" y="375" font-family="Arial" font-size="10" text-anchor="middle">Custom</text>
  
  <!-- Database -->
  <rect x="325" y="480" width="200" height="60" rx="10" ry="10" fill="#ffe3e3" stroke="#c92a2a" stroke-width="2"/>
  <text x="425" y="515" font-family="Arial" font-size="16" text-anchor="middle">PostgreSQL Database</text>
  
  <!-- Observability -->
  <rect x="600" y="480" width="150" height="60" rx="10" ry="10" fill="#d3f9d8" stroke="#2b8a3e" stroke-width="2"/>
  <text x="675" y="515" font-family="Arial" font-size="16" text-anchor="middle">Observability</text>
  
  <!-- Connections -->
  <!-- External to Core -->
  <line x1="200" y1="140" x2="300" y2="200" stroke="#212529" stroke-width="2" marker-end="url(#arrowhead)"/>
  <line x1="200" y1="240" x2="300" y2="240" stroke="#212529" stroke-width="2" marker-end="url(#arrowhead)"/>
  <line x1="200" y1="340" x2="300" y2="280" stroke="#212529" stroke-width="2" marker-end="url(#arrowhead)"/>
  
  <!-- Core to Agents -->
  <line x1="525" y1="230" x2="650" y2="230" stroke="#1864ab" stroke-width="2" marker-end="url(#arrowhead)"/>
  <line x1="525" y1="310" x2="650" y2="310" stroke="#1864ab" stroke-width="2" marker-end="url(#arrowhead)"/>
  
  <!-- Core to Database -->
  <line x1="425" y1="420" x2="425" y2="480" stroke="#c92a2a" stroke-width="2" marker-end="url(#arrowhead)"/>
  
  <!-- Core to Observability -->
  <line x1="550" y1="350" x2="650" y2="480" stroke="#2b8a3e" stroke-width="2" marker-end="url(#arrowhead)"/>
  
  <!-- Define the arrowhead marker -->
  <defs>
    <marker id="arrowhead" markerWidth="10" markerHeight="7" refX="9" refY="3.5" orient="auto">
      <polygon points="0 0, 10 3.5, 0 7" fill="#212529"/>
    </marker>
  </defs>
  
  <!-- Legend -->
  <rect x="50" y="480" width="20" height="20" fill="#f8f9fa" stroke="#212529" stroke-width="2"/>
  <text x="80" y="495" font-family="Arial" font-size="12">External Systems</text>
  
  <rect x="50" y="510" width="20" height="20" fill="#d0ebff" stroke="#1864ab" stroke-width="2"/>
  <text x="80" y="525" font-family="Arial" font-size="12">Core Components</text>
  
  <rect x="50" y="540" width="20" height="20" fill="#fff3bf" stroke="#e67700" stroke-width="2"/>
  <text x="80" y="555" font-family="Arial" font-size="12">Agent Components</text>
  
  <rect x="200" y="480" width="20" height="20" fill="#ffe3e3" stroke="#c92a2a" stroke-width="2"/>
  <text x="230" y="495" font-family="Arial" font-size="12">Database</text>
  
  <rect x="200" y="510" width="20" height="20" fill="#d3f9d8" stroke="#2b8a3e" stroke-width="2"/>
  <text x="230" y="525" font-family="Arial" font-size="12">Observability</text>
</svg>