<?xml version="1.0" encoding="UTF-8" standalone="no"?>
<svg width="800" height="600" xmlns="http://www.w3.org/2000/svg">
    <style>
        .box { fill: #2D3748; stroke: #4A5568; stroke-width: 2; }
        .input-box { fill: #3182CE; stroke: #2C5282; stroke-width: 2; }
        .process-box { fill: #ED8936; stroke: #DD6B20; stroke-width: 2; }
        .data-box { fill: #38A169; stroke: #2F855A; stroke-width: 2; }
        .output-box { fill: #E53E3E; stroke: #C53030; stroke-width: 2; }
        .text { fill: white; font-family: Arial, sans-serif; font-size: 14px; }
        .title { fill: white; font-family: Arial, sans-serif; font-size: 18px; font-weight: bold; }
        .subtitle { fill: white; font-family: Arial, sans-serif; font-size: 12px; font-style: italic; }
        .arrow { stroke: white; stroke-width: 2; fill: none; marker-end: url(#arrowhead); }
        .dashed-arrow { stroke: white; stroke-width: 2; fill: none; marker-end: url(#arrowhead); stroke-dasharray: 5,5; }
        .label { fill: white; font-family: Arial, sans-serif; font-size: 12px; }
        .code { fill: white; font-family: monospace; font-size: 12px; }
    </style>
    
    <defs>
        <marker id="arrowhead" markerWidth="10" markerHeight="7" refX="9" refY="3.5" orient="auto">
            <polygon points="0 0, 10 3.5, 0 7" fill="white" />
        </marker>
    </defs>
    
    <rect width="800" height="600" fill="#1A202C" />
    
    <text x="400" y="40" class="title" text-anchor="middle">Context Enrichment Process</text>
    
    <!-- User Query -->
    <rect x="50" y="100" width="200" height="60" rx="5" class="input-box" />
    <text x="150" y="135" class="text" text-anchor="middle">User Query</text>
    <text x="150" y="155" class="subtitle" text-anchor="middle">"How do I return my printer?"</text>
    
    <!-- Initial Context -->
    <rect x="50" y="180" width="200" height="100" rx="5" class="input-box" />
    <text x="150" y="205" class="text" text-anchor="middle">Initial Context</text>
    <text x="150" y="230" class="code" text-anchor="middle">{ </text>
    <text x="150" y="250" class="code" text-anchor="middle">  "session_id": "sess123",</text>
    <text x="150" y="270" class="code" text-anchor="middle">  "customer_id": "cust456"</text>
    <text x="150" y="290" class="code" text-anchor="middle">}</text>
    
    <!-- Enrichment Processes -->
    <rect x="310" y="90" width="180" height="60" rx="5" class="process-box" />
    <text x="400" y="125" class="text" text-anchor="middle">Entity Extraction</text>
    <text x="400" y="145" class="subtitle" text-anchor="middle">(Product Type, Intent)</text>
    
    <rect x="310" y="170" width="180" height="60" rx="5" class="process-box" />
    <text x="400" y="205" class="text" text-anchor="middle">Customer Profile</text>
    <text x="400" y="225" class="subtitle" text-anchor="middle">(Order History, Preferences)</text>
    
    <rect x="310" y="250" width="180" height="60" rx="5" class="process-box" />
    <text x="400" y="285" class="text" text-anchor="middle">Document Retrieval</text>
    <text x="400" y="305" class="subtitle" text-anchor="middle">(Return Policy, Instructions)</text>
    
    <rect x="310" y="330" width="180" height="60" rx="5" class="process-box" />
    <text x="400" y="365" class="text" text-anchor="middle">Memory Retrieval</text>
    <text x="400" y="385" class="subtitle" text-anchor="middle">(Previous Conversations)</text>
    
    <!-- Data Sources -->
    <rect x="550" y="90" width="200" height="60" rx="5" class="data-box" />
    <text x="650" y="125" class="text" text-anchor="middle">Entity Patterns</text>
    <text x="650" y="145" class="subtitle" text-anchor="middle">(Regex, NER Models)</text>
    
    <rect x="550" y="170" width="200" height="60" rx="5" class="data-box" />
    <text x="650" y="205" class="text" text-anchor="middle">Customer Database</text>
    <text x="650" y="225" class="subtitle" text-anchor="middle">(CRM Integration)</text>
    
    <rect x="550" y="250" width="200" height="60" rx="5" class="data-box" />
    <text x="650" y="285" class="text" text-anchor="middle">Document Store</text>
    <text x="650" y="305" class="subtitle" text-anchor="middle">(pgvector)</text>
    
    <rect x="550" y="330" width="200" height="60" rx="5" class="data-box" />
    <text x="650" y="365" class="text" text-anchor="middle">Conversation Memory</text>
    <text x="650" y="385" class="subtitle" text-anchor="middle">(PostgreSQL)</text>
    
    <!-- Enriched Context -->
    <rect x="250" y="430" width="300" height="150" rx="5" class="output-box" />
    <text x="400" y="455" class="text" text-anchor="middle">Enriched Context</text>
    <text x="400" y="480" class="code" text-anchor="middle">{ </text>
    <text x="400" y="500" class="code" text-anchor="middle">  "session_id": "sess123",</text>
    <text x="400" y="520" class="code" text-anchor="middle">  "customer_id": "cust456",</text>
    <text x="400" y="540" class="code" text-anchor="middle">  "entity_memory": { "product": "printer" },</text>
    <text x="400" y="560" class="code" text-anchor="middle">  "document_context": [{ "title": "Return Policy" }],</text>
    <text x="400" y="580" class="code" text-anchor="middle">  "profile": { "recent_orders": [{ "id": "ord789" }] }</text>
    <text x="400" y="600" class="code" text-anchor="middle">}</text>
    
    <!-- Connections -->
    <path d="M 260 130 L 300 120" class="arrow" />
    <path d="M 260 200 L 300 200" class="arrow" />
    <path d="M 260 230 L 300 280" class="arrow" />
    <path d="M 260 270 L 300 360" class="arrow" />
    
    <path d="M 500 120 L 540 120" class="arrow" />
    <path d="M 500 200 L 540 200" class="arrow" />
    <path d="M 500 280 L 540 280" class="arrow" />
    <path d="M 500 360 L 540 360" class="arrow" />
    
    <path d="M 400 400 L 400 420" class="arrow" />
    
    <!-- Agent Usage -->
    <rect x="620" y="480" width="150" height="80" rx="5" class="box" />
    <text x="695" y="510" class="text" text-anchor="middle">Agent Processing</text>
    <text x="695" y="530" class="subtitle" text-anchor="middle">(Returns Agent)</text>
    <text x="695" y="550" class="subtitle" text-anchor="middle">(Order Lookup)</text>
    
    <path d="M 560 505 L 610 520" class="arrow" />
</svg>